Amazingly there wasn't a high quality, full resolution, original B&W version on this site, so here it is.  If you want the original B&W movie, this is the best version available.  Enjoy and PLEASE SEED if you want this to remain available for others, otherwise it will die.

Specs:


General
Format                           : MPEG-4
File size                        : 1.49 GiB
Duration                         : 2h 10mn
Overall bit rate mode            : Variable
Overall bit rate                 : 1 637 Kbps

Video
Format                           : AVC
Duration                         : 2h 10mn
Bit rate mode                    : Variable
Bit rate                         : 1 422 Kbps
Width                            : 720 pixels
Height                           : 544 pixels
Display aspect ratio             : 4:3
Frame rate                       : 23.976 fps
Stream size                      : 1.30 GiB (87%)
Writing library                  : x264 core 112

Audio
Format                           : AAC
Duration                         : 2h 10mn
Bit rate mode                    : Variable
Bit rate                         : 210 Kbps
Maximum bit rate                 : 235 Kbps
Channel(s)                       : 2 channels
Channel positions                : Front: L R
Sampling rate                    : 48.0 KHz
Stream size                      : 196 MiB (13%)
Language                         : English